# xmcd
#
# Track frame offsets:
#	150
#	14834
#	24744
#	40543
#	60675
#	78057
#	93039
#	111105
#	129993
#	146537
#	163602
#	180917
#	198424
#	215404
#
# Disc length: 3047 seconds
#
# Revision: 1
# Processed by: cddbd v1.5.2PL0 Copyright (c) Steve Scherf et al.
# Submitted via: audiograbber 1.83.01
#
DISCID=ae0be50e
DTITLE=Various Artist - Hitz Country 2003 Vol 8
DYEAR=2003
DGENRE=Country
TTITLE0=Brooks and Dunn - You Can't Take The Honky Tonk Out Of The Girl
TTITLE1=Tracy Byrd - Drinkin' Bone
TTITLE2=Chris Cagle - Chicks Dig It
TTITLE3=Sherrie Austin - Streets Of Heaven
TTITLE4=Brad Paisley - Little Moments
TTITLE5=Trace Adkins - Hot Mama
TTITLE6=Sara Evans - Perfect
TTITLE7=Vince Gill - Young Man's Town
TTITLE8=Jennifer Hanson - Half A Heart Tattoo
TTITLE9=Tracy Lawrence - Paint Me A Birmingham
TTITLE10=Rebecca Lynn Howard - I Need A Vacation
TTITLE11=Craig Morgan - Every Friday Afternoon
TTITLE12=Kellie Coffey - Texas Plates
TTITLE13=Joe Nichols - Cool To Be A Fool
EXTD=
EXTT0=
EXTT1=
EXTT2=
EXTT3=
EXTT4=
EXTT5=
EXTT6=
EXTT7=
EXTT8=
EXTT9=
EXTT10=
EXTT11=
EXTT12=
EXTT13=
PLAYORDER=
